<svg width="100" height="90" viewBox="0 0 100 90" fill="none" xmlns="http://www.w3.org/2000/svg">
<path d="M7.48926 7.0752H95.3324V69.3819C53.3836 61.1346 41.9854 62.0114 7.48926 69.4915V7.0752Z" fill="#9CD2FF"/>
<path d="M18.2298 67.4913L9.92772 69.8203C7.29735 70.0667 4.88619 68.3405 4.66699 65.6555V8.99311C4.96839 6.22562 7.84535 4.49951 10.1469 5.12976C37.7383 13.3495 62.3706 13.1577 89.7702 5.12976C92.1814 4.66392 95.0035 6.03383 95.3049 9.21231L95.2501 65.8473C95.3597 66.5049 94.0993 70.1216 90.0716 69.8203L81.7969 67.5187" stroke="#082D4E" stroke-width="8.37415" stroke-linecap="round"/>
<path d="M27.4082 85.0003C27.4082 77.8216 32.8333 71.6019 40.971 71.4375H58.9726C65.8499 71.4375 72.6176 76.6434 72.6176 85.0003" stroke="#082D4E" stroke-width="8.37415" stroke-linecap="round"/>
<ellipse cx="50.0134" cy="46.4752" rx="11.3434" ry="11.2886" stroke="#082D4E" stroke-width="8.37415"/>
</svg>
