<svg width="122" height="121" viewBox="0 0 122 121" fill="none" xmlns="http://www.w3.org/2000/svg">
<path d="M102.159 0H19.4143C8.9209 0 0.414307 8.50658 0.414307 19V41.218C0.414307 65.331 12.6526 87.7958 32.9123 100.872L50.3412 112.121C58.639 117.477 69.3703 117.202 77.3837 111.43L91.6574 101.148C110.181 87.8046 121.159 66.3678 121.159 43.5384V19C121.159 8.50659 112.652 0 102.159 0Z" fill="#2E6711"/>
<path d="M65.7436 46.4824L59.7971 61.2173" stroke="white" stroke-width="3.28231" stroke-miterlimit="10" stroke-linecap="round" stroke-linejoin="round"/>
<path d="M68.8831 55.7666H77.1079L70.5357 70.5013" stroke="white" stroke-width="3.28231" stroke-miterlimit="10" stroke-linecap="round" stroke-linejoin="round"/>
<path d="M57.6857 49.1135H48.2971C48.2971 49.1135 53.268 40.2334 54.0883 39.2415C54.9178 38.2385 55.7032 38.8641 55.7781 39.7488C55.8529 40.6335 55.7406 53.4623 55.7406 53.4623" stroke="white" stroke-width="3.28231" stroke-miterlimit="10" stroke-linecap="round" stroke-linejoin="round"/>
<path d="M44.1392 53.7168C44.1392 53.7168 36.865 53.8068 36.5205 53.6937C36.1759 53.5804 37.0729 52.9825 41.8421 46.2668C42.7328 45.0126 43.223 43.9545 43.4316 43.068L43.5055 42.4979C43.5055 40.4156 41.7927 38.7275 39.6799 38.7275C37.8207 38.7275 36.2713 40.0346 35.926 41.7671" stroke="white" stroke-width="3.28231" stroke-miterlimit="10" stroke-linecap="round" stroke-linejoin="round"/>
<path d="M37.934 60.999C39.7068 67.7027 44.2399 73.6702 50.9651 77.1227C56.3368 79.8805 62.2411 80.5892 67.7584 79.5344" stroke="white" stroke-width="3.28231" stroke-miterlimit="10" stroke-linecap="round" stroke-linejoin="round" stroke-dasharray="3.83 7.66"/>
<path d="M74.0442 77.4836C78.887 75.1907 83.0458 71.3909 85.719 66.3336C92.2928 53.896 87.3915 38.5614 74.7716 32.0825C67.5473 28.3737 59.3598 28.371 52.4459 31.3798" stroke="white" stroke-width="3.28231" stroke-miterlimit="10" stroke-linecap="round" stroke-linejoin="round"/>
<path d="M55.0542 27L51.4753 31.8254L57.3721 33.2226" stroke="white" stroke-width="3.28231" stroke-miterlimit="10" stroke-linecap="round" stroke-linejoin="round"/>
</svg>
