<svg width="122" height="121" viewBox="0 0 122 121" fill="none" xmlns="http://www.w3.org/2000/svg">
<path d="M102.528 0H19.7832C9.28979 0 0.783203 8.50658 0.783203 19V41.218C0.783203 65.331 13.0215 87.7958 33.2812 100.872L50.7101 112.121C59.0079 117.477 69.7392 117.202 77.7526 111.43L92.0263 101.148C110.55 87.8046 121.528 66.3678 121.528 43.5384V19C121.528 8.50659 113.021 0 102.528 0Z" fill="#B33952"/>
<mask id="mask0_197_1465" style="mask-type:luminance" maskUnits="userSpaceOnUse" x="31" y="22" width="59" height="57">
<path d="M31.2227 22H89.0583V79H31.2227V22Z" fill="white"/>
</mask>
<g mask="url(#mask0_197_1465)">
<path d="M79.0205 39.3624C79.0804 39.4604 79.1404 39.5583 79.1979 39.6585C81.0696 42.847 82.1416 46.5498 82.1416 50.4997C82.1416 54.4497 81.0696 58.1524 79.1979 61.3408C75.4476 67.7299 68.4858 72.0573 60.4883 72.1787" stroke="white" stroke-width="2.22656" stroke-miterlimit="10" stroke-linejoin="round"/>
<path d="M41.2617 61.6377C41.2018 61.5397 41.1418 61.4418 41.0843 61.3416C39.2126 58.1531 38.1406 54.4504 38.1406 50.5004C38.1406 46.5504 39.2126 42.8477 41.0843 39.6593C44.8346 33.2702 51.7963 28.9429 59.7939 28.8214" stroke="white" stroke-width="2.22656" stroke-miterlimit="10" stroke-linejoin="round"/>
<path d="M70.7455 44.7229C71.0031 46.5621 71.1409 48.4992 71.1409 50.4998C71.1409 54.4485 70.6055 58.1513 69.669 61.3409C67.8221 67.6343 64.4164 71.9282 60.4921 72.1709" stroke="white" stroke-width="2.22656" stroke-miterlimit="10" stroke-linejoin="round"/>
<path d="M49.5361 56.2764C49.2785 54.4372 49.1407 52.5012 49.1407 50.5007C49.1407 46.5519 49.6761 42.8491 50.6126 39.6595C52.4595 33.3662 55.8652 29.0722 59.7895 28.8295" stroke="white" stroke-width="2.22656" stroke-miterlimit="10" stroke-linejoin="round"/>
<path d="M60.1406 39.6595V39.6761V50.5007V61.324V61.3418" stroke="white" stroke-width="2.22656" stroke-miterlimit="10" stroke-linejoin="round"/>
<path d="M38.1407 50.5H82.1415" stroke="white" stroke-width="2.22656" stroke-miterlimit="10" stroke-linejoin="round"/>
<path d="M60.1415 39.6602H60.1313H50.6133H41.0851H41.084" stroke="white" stroke-width="2.22656" stroke-miterlimit="10" stroke-linejoin="round"/>
<path d="M60.1406 61.3418H60.1519H69.6688H79.197" stroke="white" stroke-width="2.22656" stroke-miterlimit="10" stroke-linejoin="round"/>
<path d="M64.5365 24.2694C60.9465 26.0542 58.4844 29.7209 58.4844 33.9542C58.4844 39.9414 63.4091 44.7949 69.484 44.7949C75.559 44.7949 80.4838 39.9414 80.4838 33.9542C80.4838 29.7221 78.0231 26.0565 74.435 24.271" stroke="white" stroke-width="2.22656" stroke-miterlimit="10" stroke-linecap="round" stroke-linejoin="round"/>
<path d="M70.6146 23.1133C70.6146 23.728 70.1089 24.2266 69.485 24.2266C68.8613 24.2266 68.3554 23.728 68.3554 23.1133C68.3554 22.4985 68.8613 22 69.485 22C70.1089 22 70.6146 22.4985 70.6146 23.1133Z" fill="white"/>
<path d="M71.2969 36.7714C74.2045 37.4394 76.3598 39.6772 76.4377 42.3545" stroke="white" stroke-width="2.22656" stroke-miterlimit="10" stroke-linejoin="round"/>
<path d="M62.5312 42.3535C62.609 39.6761 64.7644 37.4384 67.672 36.7704" stroke="white" stroke-width="2.22656" stroke-miterlimit="10" stroke-linejoin="round"/>
<path d="M65.5742 33.3552C65.5742 35.4836 67.3248 37.209 69.4843 37.209C71.6439 37.209 73.3945 35.4836 73.3945 33.3552C73.3945 31.2269 71.6439 29.5015 69.4843 29.5015C67.3248 29.5015 65.5742 31.2269 65.5742 33.3552Z" stroke="white" stroke-width="2.22656" stroke-miterlimit="10" stroke-linejoin="round"/>
<path d="M61.7981 67.046C61.7981 73.0331 56.8734 77.8867 50.7985 77.8867C44.7235 77.8867 39.7988 73.0331 39.7988 67.046C39.7988 61.0588 44.7235 56.2052 50.7985 56.2052C56.8734 56.2052 61.7981 61.0588 61.7981 67.046Z" stroke="white" stroke-width="2.22656" stroke-miterlimit="10" stroke-linejoin="round"/>
<path d="M43.8456 75.4473C43.9235 72.7698 46.0789 70.531 48.9865 69.863" stroke="white" stroke-width="2.22656" stroke-miterlimit="10" stroke-linejoin="round"/>
<path d="M52.6094 69.863C55.517 70.5321 57.6723 72.7698 57.7502 75.4473" stroke="white" stroke-width="2.22656" stroke-miterlimit="10" stroke-linejoin="round"/>
<path d="M54.7071 66.448C54.7071 68.5764 52.9565 70.3018 50.797 70.3018C48.6374 70.3018 46.8868 68.5764 46.8868 66.448C46.8868 64.3197 48.6374 62.5943 50.797 62.5943C52.9565 62.5943 54.7071 64.3197 54.7071 66.448Z" stroke="white" stroke-width="2.22656" stroke-miterlimit="10" stroke-linejoin="round"/>
</g>
</svg>
