<svg width="122" height="121" viewBox="0 0 122 121" fill="none" xmlns="http://www.w3.org/2000/svg">
<path d="M102.528 0H19.7832C9.28979 0 0.783203 8.50658 0.783203 19V41.218C0.783203 65.331 13.0215 87.7958 33.2812 100.872L50.7101 112.121C59.0079 117.477 69.7392 117.202 77.7526 111.43L92.0263 101.148C110.55 87.8046 121.528 66.3678 121.528 43.5384V19C121.528 8.50659 113.021 0 102.528 0Z" fill="#0E7992"/>
<path d="M59.6675 48.8142L56.8428 46.3471C56.2951 45.8688 55.7925 45.3427 55.341 44.7751C53.952 43.0289 53.1112 40.9331 52.8315 38.7312C52.5061 36.1713 51.1208 33.4025 48.7904 31.1057C44.3739 26.753 38.2368 25.7446 35.0826 28.8531C31.9285 31.9617 32.9518 38.0102 37.3682 42.3628C39.6987 44.6596 42.5082 46.0248 45.1057 46.3455C47.3397 46.6212 49.4662 47.4497 51.238 48.8188C51.814 49.2638 52.3478 49.7591 52.8331 50.2989L55.0853 52.8035" stroke="white" stroke-width="2.75603" stroke-miterlimit="10" stroke-linejoin="round"/>
<path d="M59.6192 57.8463L68.3786 67.5878C70.0039 69.3952 72.8384 69.4794 74.5712 67.7717C76.304 66.0639 76.2185 63.2703 74.3846 61.6686L64.181 52.7568" stroke="white" stroke-width="2.75603" stroke-miterlimit="10" stroke-linejoin="round"/>
<path d="M70.3499 32.8086L67.6237 35.4953C66.7885 36.3185 66.2683 37.4015 66.1519 38.5601C65.9104 40.9623 64.991 43.2498 63.4978 45.1634C62.9867 45.8184 62.4129 46.4237 61.7845 46.9708L44.8944 61.6756C43.0588 63.2737 42.9711 66.0666 44.703 67.7734C46.4349 69.4803 49.2687 69.394 50.8902 67.5849L65.8107 50.9389C66.3658 50.3195 66.98 49.7542 67.6447 49.2503C69.5863 47.7788 71.9073 46.8726 74.3448 46.6346C75.5203 46.5198 76.6192 46.0072 77.4544 45.184L80.1806 42.4973" stroke="white" stroke-width="2.75603" stroke-miterlimit="10" stroke-linecap="round" stroke-linejoin="round"/>
<path d="M78.2725 25L70.3495 32.8086" stroke="white" stroke-width="2.75603" stroke-miterlimit="10" stroke-linecap="round" stroke-linejoin="round"/>
<path d="M83.1884 29.8438L75.2655 37.6523" stroke="white" stroke-width="2.75603" stroke-miterlimit="10" stroke-linecap="round" stroke-linejoin="round"/>
<path d="M88.1026 34.6885L80.1796 42.4971" stroke="white" stroke-width="2.75603" stroke-miterlimit="10" stroke-linecap="round" stroke-linejoin="round"/>
<path d="M80.1803 42.4973L70.3495 32.8086" stroke="white" stroke-width="2.75603" stroke-miterlimit="10" stroke-linejoin="round"/>
</svg>
