<svg width="122" height="121" viewBox="0 0 122 121" fill="none" xmlns="http://www.w3.org/2000/svg">
<path d="M102.204 0H19.4591C8.9657 0 0.459106 8.50658 0.459106 19V41.218C0.459106 65.331 12.6974 87.7958 32.9571 100.872L50.386 112.121C58.6838 117.477 69.4151 117.202 77.4285 111.43L91.7022 101.148C110.226 87.8046 121.204 66.3678 121.204 43.5384V19C121.204 8.50659 112.697 0 102.204 0Z" fill="#B37C39"/>
<path d="M29.8829 71.2109H91.7772" stroke="white" stroke-width="1.72966" stroke-miterlimit="10" stroke-linecap="round" stroke-linejoin="round"/>
<path d="M76.8009 68.2578V71.2094" stroke="white" stroke-width="1.72966" stroke-miterlimit="10" stroke-linecap="round" stroke-linejoin="round"/>
<path d="M76.8009 45.6299V64.3234" stroke="white" stroke-width="1.72966" stroke-miterlimit="10" stroke-linecap="round" stroke-linejoin="round"/>
<path d="M43.8595 45.6287H48.8509L60.8305 35.79L72.8101 45.6287H77.8015" stroke="white" stroke-width="1.72966" stroke-miterlimit="10" stroke-linecap="round" stroke-linejoin="round"/>
<path d="M44.8556 51.5331V45.6299" stroke="white" stroke-width="1.72966" stroke-miterlimit="10" stroke-linecap="round" stroke-linejoin="round"/>
<path d="M44.8556 71.2117V55.4697" stroke="white" stroke-width="1.72966" stroke-miterlimit="10" stroke-linecap="round" stroke-linejoin="round"/>
<path d="M32.8771 49.5645V71.2096" stroke="white" stroke-width="1.72966" stroke-miterlimit="10" stroke-linecap="round" stroke-linejoin="round"/>
<path d="M88.7814 49.5645V71.2096" stroke="white" stroke-width="1.72966" stroke-miterlimit="10" stroke-linecap="round" stroke-linejoin="round"/>
<path d="M56.8361 71.2093V62.3545H64.8225V71.2093" stroke="white" stroke-width="1.72966" stroke-miterlimit="10" stroke-linecap="round" stroke-linejoin="round"/>
<path d="M52.843 62.3545H48.8497V67.2739H52.843V62.3545Z" stroke="white" stroke-width="1.72966" stroke-miterlimit="10" stroke-linecap="round" stroke-linejoin="round"/>
<path d="M72.8098 62.3545H68.8165V67.2739H72.8098V62.3545Z" stroke="white" stroke-width="1.72966" stroke-miterlimit="10" stroke-linecap="round" stroke-linejoin="round"/>
<path d="M72.8098 49.5645H68.8165V58.4193H72.8098V49.5645Z" stroke="white" stroke-width="1.72966" stroke-miterlimit="10" stroke-linecap="round" stroke-linejoin="round"/>
<path d="M52.843 49.5645H48.8497V58.4193H52.843V49.5645Z" stroke="white" stroke-width="1.72966" stroke-miterlimit="10" stroke-linecap="round" stroke-linejoin="round"/>
<path d="M40.8645 53.501H36.8712V58.4204H40.8645V53.501Z" stroke="white" stroke-width="1.72966" stroke-miterlimit="10" stroke-linecap="round" stroke-linejoin="round"/>
<path d="M64.8224 49.5645H56.8361V58.4193H64.8224V49.5645Z" stroke="white" stroke-width="1.72966" stroke-miterlimit="10" stroke-linecap="round" stroke-linejoin="round"/>
<path d="M40.8645 62.3545H36.8712V67.2739H40.8645V62.3545Z" stroke="white" stroke-width="1.72966" stroke-miterlimit="10" stroke-linecap="round" stroke-linejoin="round"/>
<path d="M84.7902 53.501H80.797V58.4204H84.7902V53.501Z" stroke="white" stroke-width="1.72966" stroke-miterlimit="10" stroke-linecap="round" stroke-linejoin="round"/>
<path d="M84.7902 62.3545H80.797V67.2739H84.7902V62.3545Z" stroke="white" stroke-width="1.72966" stroke-miterlimit="10" stroke-linecap="round" stroke-linejoin="round"/>
<path d="M60.8287 45.6288C61.9314 45.6288 62.8253 44.7478 62.8253 43.6611C62.8253 42.5743 61.9314 41.6934 60.8287 41.6934C59.726 41.6934 58.8322 42.5743 58.8322 43.6611C58.8322 44.7478 59.726 45.6288 60.8287 45.6288Z" stroke="white" stroke-width="1.72966" stroke-miterlimit="10" stroke-linecap="round" stroke-linejoin="round"/>
<path d="M31.879 49.5645H44.8569" stroke="white" stroke-width="1.72966" stroke-miterlimit="10" stroke-linecap="round" stroke-linejoin="round"/>
<path d="M76.8009 49.5645H89.7788" stroke="white" stroke-width="1.72966" stroke-miterlimit="10" stroke-linecap="round" stroke-linejoin="round"/>
<path d="M60.8301 35.7904V23" stroke="white" stroke-width="1.72966" stroke-miterlimit="10" stroke-linecap="round" stroke-linejoin="round"/>
<path d="M60.8302 29.8876H69.8148L67.8183 26.9359L69.8148 23.9844H60.8302" stroke="white" stroke-width="1.72966" stroke-miterlimit="10" stroke-linecap="round" stroke-linejoin="round"/>
</svg>
